<svg version="1.1" xmlns="http://www.w3.org/2000/svg" viewBox="-301.0559999465942 -1105.9200317382813 7025.5721098753165 2512.896142578125"><desc>Created with Snap</desc><defs></defs><g><g><g transform="matrix(1.024,0,0,-1.024,0,0)"><path d="M454 689L550 689L330 0L228 0L6 689L108 689L281 103L454 689ZM1049 279Q1049 256 1047 232L711 232Q717 145 755 104Q793 63 853 63Q891 63 923 74Q955 85 990 109L1030 54Q946 -12 846 -12Q736 -12 674 60Q613 132 613 258Q613 340 639 403Q666 467 715 503Q765 539 832 539Q937 539 993 470Q1049 401 1049 279ZM958 300L958 306Q958 384 927 425Q896 466 834 466Q721 466 711 300L958 300ZM1444 539Q1516 539 1556 496Q1597 453 1597 378L1597 0L1505 0L1505 365Q1505 421 1483 444Q1462 467 1421 467Q1380 467 1348 443Q1316 419 1288 375L1288 0L1196 0L1196 738L1288 748L1288 454Q1350 539 1444 539ZM1782 527L1874 527L1874 0L1782 0L1782 527ZM1827 780Q1856 780 1874 762Q1892 744 1892 717Q1892 690 1874 672Q1856 655 1827 655Q1799 655 1781 672Q1763 690 1763 717Q1763 744 1781 762Q1799 780 1827 780ZM2256 539Q2303 539 2342 525Q2381 512 2417 482L2373 424Q2345 444 2318 453Q2292 463 2260 463Q2196 463 2160 412Q2125 361 2125 261Q2125 161 2160 113Q2195 66 2260 66Q2291 66 2317 75Q2343 85 2375 106L2417 46Q2345 -12 2256 -12Q2149 -12 2087 60Q2026 132 2026 259Q2026 343 2054 406Q2082 469 2133 504Q2185 539 2256 539ZM2647 -12Q2596 -12 2566 18Q2537 49 2537 104L2537 739L2629 750L2629 106Q2629 84 2636 74Q2644 64 2662 64Q2681 64 2696 70L2720 6Q2687 -12 2647 -12ZM3233 279Q3233 256 3231 232L2895 232Q2901 145 2939 104Q2977 63 3037 63Q3075 63 3107 74Q3139 85 3174 109L3214 54Q3130 -12 3030 -12Q2920 -12 2858 60Q2797 132 2797 258Q2797 340 2823 403Q2850 467 2899 503Q2949 539 3016 539Q3121 539 3177 470Q3233 401 3233 279ZM3142 300L3142 306Q3142 384 3111 425Q3080 466 3018 466Q2905 466 2895 300L3142 300Z" fill="#1d8ac0" style=""></path></g></g><g transform="matrix(1,0,0,1,1021.9518,1087.4881)"><g transform="matrix(1.024,0,0,-1.024,0,0)"><path d="M195 0L100 0L100 689L466 689L455 613L195 613L195 378L420 378L420 303L195 303L195 0ZM691 -12Q640 -12 610 18Q581 49 581 104L581 739L673 750L673 106Q673 84 680 74Q688 64 706 64Q725 64 740 70L764 6Q731 -12 691 -12ZM1277 279Q1277 256 1275 232L939 232Q945 145 983 104Q1021 63 1081 63Q1119 63 1151 74Q1183 85 1218 109L1258 54Q1174 -12 1074 -12Q964 -12 902 60Q841 132 841 258Q841 340 867 403Q894 467 943 503Q993 539 1060 539Q1165 539 1221 470Q1277 401 1277 279ZM1186 300L1186 306Q1186 384 1155 425Q1124 466 1062 466Q949 466 939 300L1186 300ZM1822 279Q1822 256 1820 232L1484 232Q1490 145 1528 104Q1566 63 1626 63Q1664 63 1696 74Q1728 85 1763 109L1803 54Q1719 -12 1619 -12Q1509 -12 1447 60Q1386 132 1386 258Q1386 340 1412 403Q1439 467 1488 503Q1538 539 1605 539Q1710 539 1766 470Q1822 401 1822 279ZM1731 300L1731 306Q1731 384 1700 425Q1669 466 1607 466Q1494 466 1484 300L1731 300ZM2200 85L2235 24Q2183 -12 2117 -12Q2050 -12 2012 26Q1975 65 1975 138L1975 456L1883 456L1883 527L1975 527L1975 646L2067 657L2067 527L2192 527L2182 456L2067 456L2067 142Q2067 101 2081 82Q2096 64 2130 64Q2161 64 2200 85Z" fill="#1d8ac0" style=""></path></g></g><g transform="matrix(2.6909,0,0,2.6909,3601.2594,1099.7761)"><g transform="matrix(1.024,0,0,-1.024,0,0)"><path d="M454 689L550 689L330 0L228 0L6 689L108 689L281 103L454 689ZM751 0L656 0L656 689L1022 689L1011 613L751 613L751 378L976 378L976 303L751 303L751 0Z" fill="#1d8ac0" style=""></path></g></g></g></svg>